<?xml version="1.0" encoding="iso-8859-1"?>
<!-- Generator: Adobe Illustrator 19.0.0, SVG Export Plug-In . SVG Version: 6.00 Build 0)  -->
<svg version="1.1" id="Layer_1" xmlns="http://www.w3.org/2000/svg" xmlns:xlink="http://www.w3.org/1999/xlink" x="0px" y="0px"
	 viewBox="0 0 512 512" style="enable-background:new 0 0 512 512;" xml:space="preserve">
<g>
	<path style="fill:#507C5C;" d="M161.825,512H82.449c-7.691,0-13.926-6.234-13.926-13.926V13.926C68.523,6.234,74.758,0,82.449,0
		h79.376c7.691,0,13.926,6.234,13.926,13.926v484.149C175.751,505.766,169.516,512,161.825,512z M96.375,484.149h51.525V27.851
		H96.375V484.149z"/>
	<path style="fill:#507C5C;" d="M480.851,433.29H146.159c-7.691,0-13.926-6.234-13.926-13.926V92.636
		c0-7.691,6.234-13.926,13.926-13.926h334.692c4.774,0,9.215,2.445,11.767,6.478c2.553,4.033,2.862,9.093,0.819,13.408
		l-13.332,28.151c-5.618,11.862-5.498,25.411,0.331,37.172l15.203,30.673c1.931,3.896,1.931,8.471,0,12.369l-14.924,30.113
		c-5.874,11.852-5.874,26.003,0,37.855l14.924,30.113c3.416,6.892,0.597,15.246-6.293,18.662
		c-6.892,3.416-15.247,0.597-18.662-6.293l-14.924-30.113c-9.712-19.596-9.712-42.995,0-62.591l11.86-23.928l-12.138-24.488
		c-9.637-19.447-9.836-41.848-0.547-61.461l3.914-8.265H160.084V405.44h298.763l-3.915-8.265c-3.292-6.95-0.326-15.254,6.624-18.546
		c6.949-3.295,15.253-0.327,18.546,6.624l13.332,28.151c2.043,4.314,1.735,9.373-0.819,13.408
		C490.064,430.844,485.623,433.29,480.851,433.29z"/>
</g>
<path style="fill:#CFF09E;" d="M181.321,455.831H62.953c-18.843,0-34.118-15.275-34.118-34.118V90.287
	c0-18.843,15.275-34.118,34.118-34.118h118.368c18.843,0,34.118,15.275,34.118,34.118v331.427
	C215.439,440.556,200.164,455.831,181.321,455.831z"/>
<g>
	<path style="fill:#507C5C;" d="M181.321,469.757H62.953c-26.491,0-48.043-21.553-48.043-48.043V90.287
		c0-26.491,21.553-48.043,48.043-48.043h118.368c26.491,0,48.043,21.553,48.043,48.043v331.427
		C229.364,448.204,207.813,469.757,181.321,469.757z M62.953,70.095c-11.134,0-20.192,9.059-20.192,20.192v331.427
		c0,11.134,9.059,20.192,20.192,20.192h118.368c11.134,0,20.192-9.059,20.192-20.192V90.287c0-11.134-9.059-20.192-20.192-20.192
		H62.953z"/>
	<path style="fill:#507C5C;" d="M302.825,360.79c-7.691,0-13.926-6.234-13.926-13.926V165.134c0-7.691,6.234-13.926,13.926-13.926
		s13.926,6.234,13.926,13.926v181.731C316.75,354.556,310.516,360.79,302.825,360.79z"/>
	<path style="fill:#507C5C;" d="M391.946,360.79c-7.691,0-13.926-6.234-13.926-13.926V165.134c0-7.691,6.234-13.926,13.926-13.926
		c7.691,0,13.926,6.234,13.926,13.926v181.731C405.871,354.556,399.637,360.79,391.946,360.79z"/>
	<path style="fill:#507C5C;" d="M424.324,211.438H270.447c-7.691,0-13.926-6.234-13.926-13.926c0-7.691,6.234-13.926,13.926-13.926
		h153.877c7.691,0,13.926,6.234,13.926,13.926C438.25,205.204,432.015,211.438,424.324,211.438z"/>
	<path style="fill:#507C5C;" d="M424.324,328.413H270.447c-7.691,0-13.926-6.235-13.926-13.926s6.234-13.926,13.926-13.926h153.877
		c7.691,0,13.926,6.234,13.926,13.926S432.015,328.413,424.324,328.413z"/>
</g>
<g>
</g>
<g>
</g>
<g>
</g>
<g>
</g>
<g>
</g>
<g>
</g>
<g>
</g>
<g>
</g>
<g>
</g>
<g>
</g>
<g>
</g>
<g>
</g>
<g>
</g>
<g>
</g>
<g>
</g>
</svg>
