<?xml version="1.0" encoding="iso-8859-1"?>
<!-- Generator: Adobe Illustrator 19.0.0, SVG Export Plug-In . SVG Version: 6.00 Build 0)  -->
<svg version="1.1" id="Layer_1" xmlns="http://www.w3.org/2000/svg" xmlns:xlink="http://www.w3.org/1999/xlink" x="0px" y="0px"
	 viewBox="0 0 499.425 499.425" style="enable-background:new 0 0 499.425 499.425;" xml:space="preserve">
<g transform="translate(1 2)">
	<g>
		<g>
			<path d="M461.147,0.695l-23.354,24.253L410.846-2l-26.947,26.947L356.951-2l-26.947,26.947L303.056-2l-26.947,26.947L249.161-2
				l-26.947,26.947L195.267-2l-26.947,26.947L141.372-2l-26.947,26.947L87.477-2L60.53,24.947L36.277,0.695H20.109V494.73h16.168
				l23.354-24.253l26.947,26.947l26.947-26.947l26.947,26.947l26.947-26.947l26.947,26.947l26.947-26.947l26.947,26.947
				l26.049-26.947l26.947,26.947l26.947-26.947l26.947,26.947l26.947-26.947l26.947,26.947l26.947-26.947l24.253,24.253h17.067
				V0.695H461.147z M459.351,467.782l-22.456-22.456l-26.947,26.947L383,445.326l-26.947,26.049l-26.947-26.947l-26.947,26.947
				l-26.947-26.947l-26.947,26.947l-26.947-26.947l-26.947,26.947l-26.947-26.947l-26.947,26.947l-26.947-26.947l-26.947,26.947
				l-26.947-26.947l-22.456,22.456V26.744l22.456,23.354l26.947-26.947l26.947,26.947l26.947-26.947l26.947,26.947l26.947-26.947
				l26.947,26.947l26.947-26.947l26.947,26.947l26.947-26.947l26.947,26.947l26.947-26.947L383,50.098l26.947-26.947l26.947,26.947
				l22.456-22.456V467.782z"/>
			<path d="M248.263,63.572c-101.502,0-184.14,82.639-184.14,184.14s82.639,184.14,184.14,184.14
				c102.4,0,184.14-82.639,184.14-184.14S349.765,63.572,248.263,63.572z M248.263,413.888
				c-91.621,0-166.175-74.554-166.175-166.175S156.642,81.537,248.263,81.537c92.519,0,166.175,74.554,166.175,166.175
				S339.884,413.888,248.263,413.888z"/>
			<path d="M248.263,108.484c-76.351,0-139.228,62.877-139.228,139.228S171.912,386.94,248.263,386.94
				c77.249,0,139.228-62.877,139.228-139.228S324.614,108.484,248.263,108.484z M248.263,368.975
				c-66.47,0-121.263-54.793-121.263-121.263s54.793-121.263,121.263-121.263c67.368,0,121.263,54.793,121.263,121.263
				S314.733,368.975,248.263,368.975z"/>
		</g>
	</g>
</g>
<g>
</g>
<g>
</g>
<g>
</g>
<g>
</g>
<g>
</g>
<g>
</g>
<g>
</g>
<g>
</g>
<g>
</g>
<g>
</g>
<g>
</g>
<g>
</g>
<g>
</g>
<g>
</g>
<g>
</g>
</svg>
