<svg id="Layer_1" height="512" viewBox="0 0 512 512" width="512" xmlns="http://www.w3.org/2000/svg" data-name="Layer 1"><path d="m191.748 53.85.252 47.09v2.06h30v-2.06l-.252-47.09a36.774 36.774 0 0 1 21.559-33.633 36.563 36.563 0 0 0 -51.559 33.633z" fill="#d4e1f4"/><path d="m222.428 411.96-.093-251.96h-30l.093 251.96a184.885 184.885 0 0 0 17.781 78.98l1.945 4.06 28.938.015c.193-.351.371-.708.561-1.06l-1.444-3.015a184.885 184.885 0 0 1 -17.781-78.98z" fill="#d4e1f4"/><g fill="#0635c9"><path d="m154.811 166h31.654l.029 245.956a191.962 191.962 0 0 0 18.32 81.547l1.932 4.058a5.984 5.984 0 0 0 5.418 3.421l28.942.018h.007a5.985 5.985 0 0 0 5.249-3.108 191.554 191.554 0 0 0 23.638-92.079v-5.813h-12v5.814a179.555 179.555 0 0 1 -20.48 83.186l-21.55-.024-.308-.656a179.633 179.633 0 0 1 -17.169-76.361l-.028-245.959h59.522l.013 103.167 12 .058-.013-103.225h31.96a6.254 6.254 0 0 0 6.053-6.24v-42.932a21.849 21.849 0 0 0 -21.527-21.828h-15.289l-.05-41.29a42.775 42.775 0 0 0 -42.801-42.71h-.023a42.779 42.779 0 0 0 -42.743 42.68l.05 41.32h-15.332c-11.841 0-21.285 9.986-21.285 21.828v42.932a6.052 6.052 0 0 0 5.811 6.24zm53.189-59v47h-18v-47zm59 0v47h-18v-47zm-30 47h-17v-47h17zm59-37.172v37.172h-17v-47h7.473a9.839 9.839 0 0 1 9.527 9.828zm-98.433-63.159a30.627 30.627 0 0 1 30.743-30.669h.017a30.758 30.758 0 0 1 30.807 30.721l.05 41.279h-61.567zm-36.567 63.159c0-5.224 4.061-9.828 9.285-9.828h7.715v47h-17z"/><path d="m212 215.325a6 6 0 0 0 -6 6v69.718a6 6 0 0 0 12 0v-69.718a6 6 0 0 0 -6-6z"/><path d="m218 195.457a6 6 0 0 0 -12 0v5.361a6 6 0 0 0 12 0z"/></g><path d="m245.157 339.271a6 6 0 0 0 -5.422 6.528 48.15 48.15 0 0 0 6.4 19.688 52.43 52.43 0 0 0 45.146 26.443 6 6 0 0 0 0-12 40.4 40.4 0 0 1 -34.75-20.435 36.231 36.231 0 0 1 -4.848-14.8 6 6 0 0 0 -6.526-5.424z" fill="#1ae5be"/><path d="m245.98 333.462a5.994 5.994 0 0 0 7.781-3.385 33.831 33.831 0 0 1 2.2-4.552 6 6 0 1 0 -10.385-6.012 45.924 45.924 0 0 0 -2.983 6.169 6 6 0 0 0 3.387 7.78z" fill="#1ae5be"/><path d="m291.283 412.1a72.665 72.665 0 0 0 62.68-36.617c12.074-21 12.251-45.62.474-65.856l-.307-.475-57.962-81.458a6.168 6.168 0 0 0 -4.881-2.694 6.176 6.176 0 0 0 -4.881 2.685l-29.381 41.164a6 6 0 0 0 3.641 9.356l.037.008a6 6 0 0 0 6.122-2.379l24.455-34.181 52.92 74.222c9.6 16.677 9.375 36.207-.635 53.62a59.941 59.941 0 0 1 -104.5.073c-10.067-17.465-10.314-37.1-.69-53.907l3.386-4.735a6 6 0 0 0 -9.762-6.98l-3.558 4.976-.3.472c-11.806 20.374-11.606 45.111.533 66.169a72.648 72.648 0 0 0 62.609 36.537z" fill="#1ae5be"/></svg>