<svg id="Capa_1" enable-background="new 0 0 512 512" height="512" viewBox="0 0 512 512" width="512" xmlns="http://www.w3.org/2000/svg" xmlns:xlink="http://www.w3.org/1999/xlink"><linearGradient id="SVGID_1_" gradientUnits="userSpaceOnUse" x1="256" x2="256" y1="512" y2="0"><stop offset="0" stop-color="#a93aff"/><stop offset="1" stop-color="#ff81ff"/></linearGradient><g><g><g><path d="m241 225v30h-30c-8.284 0-15 6.716-15 15s6.716 15 15 15h30v30c0 8.284 6.716 15 15 15s15-6.716 15-15v-30h30c8.284 0 15-6.716 15-15s-6.716-15-15-15h-30v-30c0-8.284-6.716-15-15-15s-15 6.716-15 15zm165-165h-107.58c1.665-4.695 2.58-9.742 2.58-15 0-24.813-20.187-45-45-45s-45 20.187-45 45c0 5.258.915 10.305 2.58 15h-107.58c-8.284 0-15 6.716-15 15v180c0 69.369 52.594 126.676 120 134.162v45.838c0 8.284 6.716 15 15 15h15v47c0 8.284 6.716 15 15 15s15-6.716 15-15v-47h15c8.284 0 15-6.716 15-15v-45.838c67.406-7.486 120-64.793 120-134.162v-180c0-8.284-6.716-15-15-15zm-150-30c8.271 0 15 6.729 15 15s-6.729 15-15 15-15-6.729-15-15 6.729-15 15-15zm15 390h-30v-30h30zm120-165c0 57.897-47.103 105-105 105h-60c-57.897 0-105-47.103-105-105v-104.892c63.55.906 96.908 7.57 132.058 14.601 35.046 7.009 71.219 14.238 137.942 15.184zm0-105.108c-63.55-.906-96.908-7.57-132.058-14.601-35.046-7.009-71.219-14.238-137.942-15.184v-30.107h270z" fill="url(#SVGID_1_)"/></g></g></g></svg>