<svg height="512" viewBox="0 0 128 128" width="512" xmlns="http://www.w3.org/2000/svg" xmlns:xlink="http://www.w3.org/1999/xlink"><linearGradient id="a" gradientUnits="userSpaceOnUse" x1="73.899" x2="43.848" y1="84.152" y2="54.101"><stop offset="0" stop-color="#593db6"/><stop offset="1" stop-color="#d86d6f"/></linearGradient><path d="m100.534 25.7-5.54 5.54a1.75 1.75 0 0 1 -2.474-2.475l5.54-5.54a1.75 1.75 0 0 1 2.474 2.475zm-55.661 37.964a1.741 1.741 0 0 0 1.237-.513l1.75-1.75a1.749 1.749 0 1 0 -2.474-2.474l-1.75 1.75a1.75 1.75 0 0 0 1.237 2.987zm77.864-35.421a1.748 1.748 0 0 1 -2.474 0l-2.651-2.65-14.57 14.57a1.75 1.75 0 1 1 -2.475-2.475l14.569-14.568-10.256-10.255-19.7 19.7 18.92 18.912a1.75 1.75 0 1 1 -2.475 2.474l-1.945-1.945-6.069 6.069-11.596 11.598-11.597 11.597-11.476 11.476a13.724 13.724 0 0 1 -15.473 2.754l-1.692 1.693a7.773 7.773 0 0 1 -9.577 1.083l-24.463 24.461a1.749 1.749 0 0 1 -2.474-2.474l24.461-24.463a7.782 7.782 0 0 1 1.086-9.576l1.69-1.684a13.721 13.721 0 0 1 2.754-15.482l4.446-4.444a1.75 1.75 0 0 1 2.475 2.475l-4.443 4.443a10.253 10.253 0 0 0 0 14.5l4.243 4.243a10.264 10.264 0 0 0 14.5 0l4.439-4.439-3.006-3a1.75 1.75 0 0 1 2.475-2.475l3.005 3.006 3.324-3.324-3.012-3.015a1.75 1.75 0 1 1 2.475-2.474l3.006 3 3.319-3.319-3-3a1.75 1.75 0 0 1 2.475-2.475l3 3.006 3.325-3.329-3.006-3a1.75 1.75 0 0 1 2.475-2.475l3 3.005 3.331-3.328-3-3.006a1.749 1.749 0 1 1 2.474-2.474l3 3.005 3.326-3.323-3-3.005a1.75 1.75 0 0 1 2.474-2.476l3.006 3.005 4.833-4.833-18.745-18.738-26.212 26.212a1.75 1.75 0 0 1 -2.475-2.475l26.212-26.212-1.944-1.945a1.75 1.75 0 1 1 2.474-2.474l6.187 6.187 19.7-19.7-2.65-2.651a1.749 1.749 0 0 1 2.474-2.474l20.506 20.506a1.748 1.748 0 0 1 -.003 2.475zm-82.309 65.344c-.319-.266-.632-.542-.931-.841l-4.242-4.246c-.3-.3-.575-.609-.841-.927l-1.129 1.127a4.254 4.254 0 0 0 6.021 6.01z" fill="url(#a)"/></svg>