<svg id="Capa_1" enable-background="new 0 0 512 512" height="512" viewBox="0 0 512 512" width="512" xmlns="http://www.w3.org/2000/svg"><g><g><path d="m256 410.607h-69.777l36.921 45.595h32.856 32.856l36.921-45.595z" fill="#f9f3f1"/></g><g><path d="m325.779 410.61-36.925 45.596h-20.352l36.925-45.596z" fill="#efe2dd"/></g><g><path d="m170.73 54.179v-39.545c0-3.939 3.193-7.133 7.133-7.133h156.276c3.939 0 7.133 3.193 7.133 7.133v39.545z" fill="#f9f3f1"/></g><g><path d="m341.271 14.638v39.545h-20.353v-39.545c0-3.94-3.2-7.141-7.131-7.141h20.353c3.941 0 7.131 3.201 7.131 7.141z" fill="#efe2dd"/></g><g><path d="m256 54.179h-85.27l15.493 356.428h69.777 69.777l15.494-356.428z" fill="#7acaa6"/></g><g><path d="m341.271 54.183-15.492 356.427h-20.352l15.492-356.427z" fill="#57be92"/></g><g><path d="m282.429 504.499h-52.858c-3.549 0-6.427-2.877-6.427-6.427v-41.87h65.712v41.87c0 3.549-2.877 6.427-6.427 6.427z" fill="#8d9ca8"/></g><g><path d="m288.854 456.206v41.866c0 3.551-2.88 6.431-6.421 6.431h-20.363c3.55 0 6.431-2.88 6.431-6.431v-41.866z" fill="#7a8c98"/></g><g><path d="m256 156.076c-17.18 0-31.107-13.927-31.107-31.107 0-17.18 13.927-31.107 31.107-31.107 17.18 0 31.107 13.927 31.107 31.107 0 17.18-13.927 31.107-31.107 31.107z" fill="#ee6161"/></g><g><path d="m287.104 124.973c0 8.591-3.48 16.362-9.111 21.993s-13.402 9.111-21.993 9.111c-12.492 0-23.263-7.371-28.204-17.992 2.85.87 5.881 1.33 9.011 1.33 8.591 0 16.372-3.48 21.993-9.111 5.631-5.631 9.111-13.412 9.111-22.003 0-4.681-1.04-9.131-2.9-13.112 4.971 1.5 9.401 4.201 12.982 7.781 5.631 5.631 9.111 13.412 9.111 22.003z" fill="#e94444"/></g><g><path d="m327.49 371.181c-4.113-.172-7.64 3.03-7.819 7.168l-1.075 24.757h-125.19l-12.165-279.859c-.18-4.139-3.67-7.336-7.82-7.168-4.138.18-7.348 3.681-7.168 7.819 0 0 12.464 286.744 12.477 287.034.073 1.683.565 2.98 1.591 4.29.026.034 35.323 43.636 35.323 43.636v39.213c0 7.68 6.248 13.928 13.928 13.928h52.857c7.681 0 13.929-6.248 13.929-13.928v-39.213c.988-1.22 32.11-39.654 34.074-42.08 1.413-1.746 2.74-3.542 2.84-5.846.002-.039 1.388-31.932 1.388-31.932.179-4.138-3.03-7.639-7.17-7.819zm-46.135 125.817h-50.71v-33.295h50.71zm3.924-48.297h-58.557l-24.773-30.593h108.102z"/><path d="m334.138 0h-156.276c-8.069 0-14.634 6.565-14.634 14.634l1.498 74.177c.182 4.14 3.693 7.348 7.82 7.168 4.138-.18 7.348-3.681 7.168-7.819l-1.152-26.479h154.873l-12.252 281.835c-.18 4.139 3.03 7.64 7.168 7.82.111.004.222.007.332.007 3.992 0 7.313-3.147 7.488-7.175l12.598-329.533c.002-8.07-6.562-14.635-14.631-14.635zm-.368 46.678h-155.54v-31.676h155.54z"/><path d="m294.608 124.969c0-21.288-17.32-38.608-38.608-38.608s-38.608 17.319-38.608 38.608 17.32 38.608 38.608 38.608 38.608-17.319 38.608-38.608zm-62.213 0c0-13.016 10.589-23.605 23.606-23.605s23.606 10.589 23.606 23.605-10.589 23.606-23.606 23.606-23.606-10.589-23.606-23.606z"/></g></g></svg>