<?xml version="1.0" encoding="iso-8859-1"?>
<!-- Generator: Adobe Illustrator 19.0.0, SVG Export Plug-In . SVG Version: 6.00 Build 0)  -->
<svg version="1.1" id="Layer_1" xmlns="http://www.w3.org/2000/svg" xmlns:xlink="http://www.w3.org/1999/xlink" x="0px" y="0px"
	 viewBox="0 0 508 508" style="enable-background:new 0 0 508 508;" xml:space="preserve">
<path style="fill:#BCAAA4;" d="M432,26.4C432,15.2,422.8,6,411.6,6H96.4C85.2,6,76,15.2,76,26.4v455.2c0,11.2,9.2,20.4,20.4,20.4
	h315.2c11.2,0,20.4-9.2,20.4-20.4V26.4z"/>
<g>
	<path style="fill:#FFD54F;" d="M169.2,54c-22,0-40,18-40,40s18,40,40,40s40-18,40-40S191.2,54,169.2,54z"/>
	<path style="fill:#FFD54F;" d="M345.6,54c-22,0-40,18-40,40s18,40,40,40s40-18,40-40S367.6,54,345.6,54z"/>
	<path style="fill:#FFD54F;" d="M169.2,374c-22,0-40,18-40,40s18,40,40,40s40-18,40-40S191.2,374,169.2,374z"/>
	<path style="fill:#FFD54F;" d="M345.6,374c-22,0-40,18-40,40s18,40,40,40s40-18,40-40S367.6,374,345.6,374z"/>
	<path style="fill:#FFD54F;" d="M169.2,214c-22,0-40,18-40,40s18,40,40,40s40-18,40-40S191.2,214,169.2,214z"/>
	<path style="fill:#FFD54F;" d="M345.6,214c-22,0-40,18-40,40s18,40,40,40s40-18,40-40S367.6,214,345.6,214z"/>
</g>
<path d="M410,508H98c-15.6,0-28-12.4-28-28V28C70,12.4,82.4,0,98,0h312c15.6,0,28,12.4,28,28v452C438,495.6,425.6,508,410,508z
	 M98,8c-11.2,0-20,8.8-20,20v452c0,11.2,8.8,20,20,20h312c11.2,0,20-8.8,20-20V28c0-11.2-8.8-20-20-20H98z"/>
<path d="M254,462c-2.4,0-4-1.6-4-4V142c0-2.4,1.6-4,4-4s4,1.6,4,4v316C258,460.4,256.4,462,254,462z"/>
<path d="M254,102c-2.4,0-4-1.6-4-4V50c0-2.4,1.6-4,4-4s4,1.6,4,4v48C258,100.4,256.4,102,254,102z"/>
<path d="M169.2,142c-26.4,0-48-21.6-48-48s21.6-48,48-48s48,21.6,48,48S195.6,142,169.2,142z M169.2,54c-22,0-40,18-40,40
	s18,40,40,40s40-18,40-40S191.2,54,169.2,54z"/>
<path d="M189.2,117.6c-1.2,0-2-0.4-2.8-1.2l-39.6-39.6c-1.6-1.6-1.6-4,0-5.6s4-1.6,5.6,0l39.6,39.6c1.6,1.6,1.6,4,0,5.6
	C191.2,117.2,190.4,117.6,189.2,117.6z"/>
<path d="M345.6,142c-26.4,0-48-21.6-48-48s21.6-48,48-48s48,21.6,48,48S372,142,345.6,142z M345.6,54c-22,0-40,18-40,40s18,40,40,40
	s40-18,40-40S367.6,54,345.6,54z"/>
<path d="M365.6,117.6c-1.2,0-2-0.4-2.8-1.2l-39.6-39.6c-1.6-1.6-1.6-4,0-5.6s4-1.6,5.6,0l39.6,39.6c1.6,1.6,1.6,4,0,5.6
	C367.6,117.2,366.4,117.6,365.6,117.6z"/>
<path d="M169.2,462c-26.4,0-48-21.6-48-48s21.6-48,48-48s48,21.6,48,48S195.6,462,169.2,462z M169.2,374c-22,0-40,18-40,40
	s18,40,40,40s40-18,40-40S191.2,374,169.2,374z"/>
<path d="M189.2,437.6c-1.2,0-2-0.4-2.8-1.2l-39.6-39.6c-1.6-1.6-1.6-4,0-5.6s4-1.6,5.6,0l39.6,39.6c1.6,1.6,1.6,4,0,5.6
	C191.2,437.2,190.4,437.6,189.2,437.6z"/>
<path d="M345.6,462c-26.4,0-48-21.6-48-48s21.6-48,48-48s48,21.6,48,48S372,462,345.6,462z M345.6,374c-22,0-40,18-40,40
	s18,40,40,40s40-18,40-40S367.6,374,345.6,374z"/>
<path d="M365.6,437.6c-1.2,0-2-0.4-2.8-1.2l-39.6-39.6c-1.6-1.6-1.6-4,0-5.6s4-1.6,5.6,0l39.6,39.6c1.6,1.6,1.6,4,0,5.6
	C367.6,437.2,366.4,437.6,365.6,437.6z"/>
<path d="M169.2,302c-26.4,0-48-21.6-48-48s21.6-48,48-48s48,21.6,48,48S195.6,302,169.2,302z M169.2,214c-22,0-40,18-40,40
	s18,40,40,40s40-18,40-40S191.2,214,169.2,214z"/>
<path d="M189.2,277.6c-1.2,0-2-0.4-2.8-1.2l-39.6-39.6c-1.6-1.6-1.6-4,0-5.6s4-1.6,5.6,0l39.6,39.6c1.6,1.6,1.6,4,0,5.6
	C191.2,277.2,190.4,277.6,189.2,277.6z"/>
<path d="M345.6,302c-26.4,0-48-21.6-48-48s21.6-48,48-48s48,21.6,48,48S372,302,345.6,302z M345.6,214c-22,0-40,18-40,40
	s18,40,40,40s40-18,40-40S367.6,214,345.6,214z"/>
<path d="M365.6,277.6c-1.2,0-2-0.4-2.8-1.2l-39.6-39.6c-1.6-1.6-1.6-4,0-5.6s4-1.6,5.6,0l39.6,39.6c1.6,1.6,1.6,4,0,5.6
	C367.6,277.2,366.4,277.6,365.6,277.6z"/>
<g>
</g>
<g>
</g>
<g>
</g>
<g>
</g>
<g>
</g>
<g>
</g>
<g>
</g>
<g>
</g>
<g>
</g>
<g>
</g>
<g>
</g>
<g>
</g>
<g>
</g>
<g>
</g>
<g>
</g>
</svg>
