<?xml version="1.0" encoding="iso-8859-1"?>
<!-- Generator: Adobe Illustrator 19.0.0, SVG Export Plug-In . SVG Version: 6.00 Build 0)  -->
<svg version="1.1" id="Layer_1" xmlns="http://www.w3.org/2000/svg" xmlns:xlink="http://www.w3.org/1999/xlink" x="0px" y="0px"
	 viewBox="0 0 511.98 511.98" style="enable-background:new 0 0 511.98 511.98;" xml:space="preserve">
<path style="fill:#F6BB42;" d="M405.313,511.98c-0.5,0-1.016-0.047-1.516-0.109l-298.317-42.999
	c-4.828-0.703-8.578-4.578-9.093-9.438L53.388,55.123c-0.344-3.188,0.781-6.375,3.031-8.641L99.418,3.14
	c2.016-2.015,4.734-3.14,7.578-3.14h340.986c5.891,0,10.672,4.765,10.672,10.655V458.31c0,2.812-1.125,5.515-3.094,7.515
	l-42.67,42.999C410.875,510.855,408.141,511.98,405.313,511.98z"/>
<path style="fill:#434A54;" d="M447.982,0H347.564l-45.779,45.779c-4.172,4.172-4.172,10.922,0,15.093
	c2.078,2.078,106.966,3.125,109.684,3.125c2.734,0,5.469-1.047,7.547-3.125l39.639-39.639V10.655C458.654,4.764,453.872,0,447.982,0
	z"/>
<path style="fill:#F6BB42;" d="M371.813,507.246l31.984,4.625c0.5,0.062,1.016,0.109,1.516,0.109c2.828,0,5.562-1.125,7.577-3.156
	l42.67-42.999c1.969-2,3.094-4.703,3.094-7.515V10.655c0-2.938-1.203-5.609-3.125-7.546l-50.216,50.217L371.813,507.246z"/>
<path style="fill:#FFCE54;" d="M405.313,42.654H63.997c-5.89,0-10.671,4.781-10.671,10.672v447.982
	c0,5.891,4.781,10.672,10.671,10.672h341.316c5.891,0,10.671-4.781,10.671-10.672V53.326
	C415.983,47.435,411.203,42.654,405.313,42.654z"/>
<path style="fill:#E6E9ED;" d="M234.661,127.994c-64.701,0-117.339,52.623-117.339,117.324c0,64.7,52.639,117.323,117.339,117.323
	c64.685,0,117.324-52.623,117.324-117.323C351.986,180.617,299.346,127.994,234.661,127.994z"/>
<path style="fill:#5D9CEC;" d="M337.362,241.646l-21.125,7.344c-11.093,3.844-29.217,3.844-40.31,0l-21.125-7.344
	c-11.078-3.844-29.217-3.844-40.295,0l-21.124,7.344c-11.078,3.844-29.217,3.844-40.311,0l-21.109-7.344
	c-5.25-1.812-10.406-1.359-14.593,0.828c-0.031,0.953-0.047,1.891-0.047,2.844c0,64.7,52.639,117.323,117.339,117.323
	c64.685,0,117.324-52.623,117.324-117.323c0-1.5-0.031-2.984-0.094-4.469C347.001,239.881,341.893,240.068,337.362,241.646z"/>
<g>
	<path style="fill:#CCD1D9;" d="M284.863,184.446c4.172,4.156,4.172,10.921,0,15.078c-4.172,4.171-10.921,4.171-15.077,0
		c-4.172-4.156-4.172-10.921,0-15.078C273.943,180.274,280.691,180.274,284.863,184.446z"/>
	<path style="fill:#CCD1D9;" d="M231.536,163.103c4.156,4.171,4.156,10.921,0,15.093c-4.171,4.156-10.921,4.156-15.093,0
		c-4.156-4.172-4.156-10.921,0-15.093C220.616,158.947,227.366,158.947,231.536,163.103z"/>
	<path style="fill:#CCD1D9;" d="M199.538,205.773c4.156,4.172,4.156,10.922,0,15.094c-4.171,4.156-10.921,4.156-15.093,0
		c-4.156-4.172-4.156-10.922,0-15.094C188.617,201.616,195.367,201.616,199.538,205.773z"/>
</g>
<path style="fill:#434A54;" d="M309.315,425.764H159.993c-5.891,0-10.672-4.78-10.672-10.671s4.781-10.672,10.672-10.672h149.322
	c5.89,0,10.671,4.781,10.671,10.672S315.206,425.764,309.315,425.764z"/>
<g>
</g>
<g>
</g>
<g>
</g>
<g>
</g>
<g>
</g>
<g>
</g>
<g>
</g>
<g>
</g>
<g>
</g>
<g>
</g>
<g>
</g>
<g>
</g>
<g>
</g>
<g>
</g>
<g>
</g>
</svg>
