<svg height="512" viewBox="0 0 512 512" width="512" xmlns="http://www.w3.org/2000/svg" xmlns:xlink="http://www.w3.org/1999/xlink"><linearGradient id="a" gradientUnits="userSpaceOnUse" x1="30.345" x2="521.017" y1="489.924" y2="-.748" data-name="New Gradient Swatch 1"><stop offset="0" stop-color="#003f8a"/><stop offset=".518" stop-color="#00d7df"/><stop offset="1" stop-color="#006df0"/></linearGradient><linearGradient id="b" x1="112.211" x2="602.883" xlink:href="#a" y1="571.789" y2="81.117"/><linearGradient id="c" x1="140.211" x2="630.883" xlink:href="#a" y1="599.789" y2="109.117"/><linearGradient id="d" x1="-65.789" x2="424.883" xlink:href="#a" y1="393.789" y2="-96.883"/><g><path d="m350.31 147.09-54.31-69.84v-21.25h8a8 8 0 0 0 8-8v-32a8 8 0 0 0 -8-8h-96a8 8 0 0 0 -8 8v32a8 8 0 0 0 8 8h8v21.25l-54.31 69.84a7.941 7.941 0 0 0 -1.69 4.91v304a48.051 48.051 0 0 0 48 48h96a48.051 48.051 0 0 0 48-48v-304a7.941 7.941 0 0 0 -1.69-4.91zm-134.31-123.09h80v16h-80zm120 432a32.036 32.036 0 0 1 -32 32h-96a32.036 32.036 0 0 1 -32-32v-235.75a86.367 86.367 0 0 1 19.23 3.47c7.72 2.1 15.7 4.28 31.44 4.28s23.71-2.18 31.43-4.28a88.428 88.428 0 0 1 27.23-3.72 88.326 88.326 0 0 1 27.23 3.72 100.8 100.8 0 0 0 23.44 4.07zm0-244.25a86.256 86.256 0 0 1 -19.23-3.47c-7.72-2.1-15.7-4.28-31.44-4.28s-23.72 2.18-31.44 4.28a88.3 88.3 0 0 1 -27.22 3.72 88.326 88.326 0 0 1 -27.23-3.72 100.8 100.8 0 0 0 -23.44-4.07v-49.46l54.31-69.84a7.941 7.941 0 0 0 1.69-4.91v-24h48v24a7.941 7.941 0 0 0 1.69 4.91l54.31 69.84z" fill="url(#a)"/><path d="m256 448h-56a8 8 0 0 0 0 16h56a8 8 0 0 0 0-16z" fill="url(#b)"/><path d="m288 448h-8a8 8 0 0 0 0 16h8a8 8 0 0 0 0-16z" fill="url(#c)"/><path d="m248 80h16a8 8 0 0 0 0-16h-16a8 8 0 0 0 0 16z" fill="url(#d)"/></g></svg>