<svg id="Capa_1" enable-background="new 0 0 512 512" height="512" viewBox="0 0 512 512" width="512" xmlns="http://www.w3.org/2000/svg"><g><path d="m474.425 292.5-42.952 212h30.075c15.747 0 28.814-12.175 29.925-27.883l13.027-184.117z" fill="#9bfef7"/><path d="m82.5 97.5h150v75h-150z" fill="#ffa17d"/><path d="m52.5 97.5h150v75h-150z" fill="#ffbea4"/><path d="m232.5 142.5h-30v362h30c24.853 0 45-20.147 45-45v-272c0-24.853-20.147-45-45-45z" fill="#ffbea4"/><path d="m247.5 459.5v-45l-60-91 60-91v-45c0-24.853-20.147-45-45-45h-150c-24.853 0-45 20.147-45 45v272c0 24.853 20.147 45 45 45h150c24.853 0 45-20.147 45-45z" fill="#ffd4c4"/><path d="m247.5 292.5-150 75 120-135h30z" fill="#f22433"/><path d="m217.5 367.5-180-75v-60h180z" fill="#ff4c4e"/><path d="m247.5 292.5v122h-30l-60-61 60-61z" fill="#bbfff9"/><path d="m217.5 292.5v30l-15 15 15 15v62h-180v-122z" fill="#fff"/><path d="m217.5 7.5-45 90 75-15v-75z" fill="#49f5e8"/><path d="m187.5 7.5-45 90h75v-90z" fill="#9bfef7"/><path d="m157.5 7.5-45 90h75v-90z" fill="#dbfffc"/><path d="m127.5 7.5-45 90h75v-90z" fill="#9bfef7"/><path d="m97.5 7.5-30 90h60v-90z" fill="#dbfffc"/><path d="m67.5 7.5 30 90-60-15v-75z" fill="#dbfffc"/><path d="m67.5 7.5h30v90h-30z" fill="#9bfef7"/><path d="m247.5 82.5v30h-30l-60-15 60-15z" fill="#4ad6cf"/><path d="m37.5 82.5h180v30h-180z" fill="#49f5e8"/><path d="m67.5 322.5h150v30h-150z" fill="#ff4c4e"/><path d="m461.398 476.617-40.605-62.117 49.387-62 4.245-60h-166.925l13.027 184.117c1.111 15.708 14.178 27.883 29.925 27.883h81.021c15.747 0 28.814-12.175 29.925-27.883z" fill="#dbfffc"/><path d="m341.82 352.5 8.632 122h111.096l8.632-122z" fill="#4ad6cf"/><path d="m247.5 225h-210c-4.142 0-7.5 3.358-7.5 7.5v182c0 4.142 3.358 7.5 7.5 7.5h210c4.142 0 7.5-3.358 7.5-7.5v-182c0-4.142-3.358-7.5-7.5-7.5zm-7.5 15v45h-195v-45zm-195 167v-107h195v107z"/><path d="m217.5 315h-150c-4.142 0-7.5 3.358-7.5 7.5v30c0 4.142 3.358 7.5 7.5 7.5h150c4.142 0 7.5-3.358 7.5-7.5v-30c0-4.142-3.358-7.5-7.5-7.5zm-7.5 30h-135v-15h135z"/><path d="m240 135.544v-15.544h7.5c4.142 0 7.5-3.358 7.5-7.5v-105c0-4.142-3.358-7.5-7.5-7.5h-210c-4.142 0-7.5 3.358-7.5 7.5v105c0 4.142 3.358 7.5 7.5 7.5h7.5v15.534c-25.409 3.65-45 25.563-45 51.966v272c0 28.949 23.551 52.5 52.5 52.5h180c28.948 0 52.5-23.551 52.5-52.5v-272c0-26.402-19.593-48.304-45-51.956zm-195-30.544v-15h195v15zm150-30v-60h15v60zm-15 0h-15v-60h15zm-30 0h-15v-60h15zm-30 0h-15v-60h15zm-30 0h-15v-60h15zm150 0h-15v-60h15zm-180-60v60h-15v-60zm210 444.5c0 20.678-16.822 37.5-37.5 37.5h-180c-20.678 0-37.5-16.822-37.5-37.5v-272c0-20.678 16.822-37.5 37.5-37.5 4.142 0 7.5-3.358 7.5-7.5v-22.5h165v15h-142.5c-4.142 0-7.5 3.358-7.5 7.5s3.358 7.5 7.5 7.5h150c20.678 0 37.5 16.822 37.5 37.5z"/><path d="m509.987 287.387c-1.419-1.522-3.406-2.387-5.487-2.387h-197c-2.081 0-4.068.865-5.487 2.387s-2.141 3.566-1.994 5.642l13.027 184.117c1.383 19.544 17.813 34.854 37.406 34.854h111.096c19.593 0 36.023-15.31 37.406-34.854l13.027-184.117c.147-2.075-.575-4.119-1.994-5.642zm-25.996 188.701c-.829 11.726-10.687 20.912-22.443 20.912h-111.096c-11.756 0-21.614-9.186-22.443-20.912l-12.459-176.088h180.9z"/><path d="m342.971 475.029c.278 3.927 3.545 6.971 7.481 6.971h111.096c3.937 0 7.203-3.044 7.481-6.971l8.632-122c.146-2.076-.575-4.12-1.994-5.642s-3.406-2.387-5.487-2.387h-128.36c-2.081 0-4.068.865-5.487 2.387s-2.141 3.566-1.994 5.642zm119.159-115.029-7.57 107h-97.12l-7.57-107z"/></g></svg>