<svg id="Capa_1" enable-background="new 0 0 512.006 512.006" height="512" viewBox="0 0 512.006 512.006" width="512" xmlns="http://www.w3.org/2000/svg"><g><g><path clip-rule="evenodd" d="m355.265 185.975c0-11.422.629-22.093-8.916-30.449l-49.382-43.289-63.128-9.167-65.243 9.167-49.382 43.289c-9.545 8.357-8.916 19.027-8.916 30.449v6.13l126.171 8.039 118.797-8.039v-6.13z" fill="#b3e59f" fill-rule="evenodd"/></g><g><path clip-rule="evenodd" d="m355.265 192.105h-244.968v210.572l120.512 14.401 124.456-14.458c0-71.078 0-133.885 0-210.515z" fill="#f9f7f8" fill-rule="evenodd"/></g><g><path clip-rule="evenodd" d="m321 492.638c-14.003-8.126-6.258-29.437-9.888-45.226-3.572-15.644-31.407-16.367-42.495-16.367h-158.32v51.327c0 5.639 4.572 10.265 10.145 10.265h96.221 16.118 16.146 72.073z" fill="#b3e59f" fill-rule="evenodd"/></g><g><path clip-rule="evenodd" d="m321 492.638c49.525 28.628 144.203 6.94 144.203-81.893 0-4.482-3.629-8.155-8.059-8.155l-101.879.029-244.968.058h-43.581c-25.663 0-28.863 37.563 4.287 37.563h39.294 158.32c11.088 0 20.776.694 24.348 16.367 3.63 15.789 14.032 27.905 28.035 36.031z" fill="#f37c7c" fill-rule="evenodd"/></g><g><path clip-rule="evenodd" d="m285.764 308.611v-16.656c0-6.275-5.087-11.422-11.288-11.422h-26.406v-26.719c0-6.275-5.087-11.422-11.288-11.422h-16.461c-6.23 0-11.317 5.147-11.317 11.422v26.719h-26.406c-6.201 0-11.288 5.147-11.288 11.422v16.656c0 6.304 5.087 11.451 11.288 11.451h26.406v26.719c0 6.275 5.087 11.422 11.317 11.422h16.461c6.201 0 11.288-5.147 11.288-11.422v-26.719h26.406c6.201 0 11.288-5.147 11.288-11.451z" fill="#f37c7c" fill-rule="evenodd"/></g><g><path clip-rule="evenodd" d="m296.966 73.98v-57.545c0-4.916-3.972-8.935-8.831-8.935h-55.355-55.326c-4.858 0-8.859 4.019-8.859 8.935v57.545l66.014 9.196z" fill="#7e707d" fill-rule="evenodd"/></g><g><path clip-rule="evenodd" d="m296.966 73.98v-57.545c0-4.916-3.972-8.935-8.831-8.935h-33.293c4.858 0 8.859 4.019 8.859 8.935v57.545z" fill="#6a5d6a" fill-rule="evenodd"/></g><g><path clip-rule="evenodd" d="m355.265 185.975c0-11.422.629-22.093-8.916-30.449l-49.382-43.289h-33.264v9.196l49.382 43.26c8.688 7.634 8.945 17.148 8.916 27.413h33.264z" fill="#95d6a4" fill-rule="evenodd"/></g><g><path clip-rule="evenodd" d="m355.265 279v-86.895h-33.265v3.065 6.13 86.895c-9.431 15.731-17.632 32.531-17.632 44.503 0 16.656 7.287 28.512 17.632 35.539v34.382h33.264v-43.549c-10.345-7.027-17.604-18.883-17.604-35.539.001-11.97 8.203-28.771 17.605-44.531z" fill="#f0f0f0" fill-rule="evenodd"/></g><g><path clip-rule="evenodd" d="m345.663 502.007c50.983 11.306 119.54-15.644 119.54-91.262 0-4.482-3.629-8.155-8.059-8.155h-46.382c4.43 0 8.059 3.672 8.059 8.155.001 53.815-34.75 82.992-73.158 91.262z" fill="#ee6161" fill-rule="evenodd"/></g><g><path clip-rule="evenodd" d="m168.595 73.98h128.371v38.257h-128.371z" fill="#f9f7f8" fill-rule="evenodd"/></g><g><path clip-rule="evenodd" d="m296.966 112.237v-38.257h-33.264v9.195 29.062z" fill="#f0f0f0" fill-rule="evenodd"/></g><g><path clip-rule="evenodd" d="m381.242 366.792c21.805 0 43.61-14.43 43.61-43.26 0-22.237-28.235-61.015-40.066-79.001-2.801-4.251-4.287-4.251-7.087 0-5.458 8.299-14.375 20.994-22.433 34.469-9.402 15.76-17.604 32.56-17.604 44.532 0 16.656 7.259 28.512 17.604 35.539 7.572 5.147 16.774 7.721 25.976 7.721z" fill="#b3e59f" fill-rule="evenodd"/></g><g><path clip-rule="evenodd" d="m424.852 323.532c0-22.237-28.235-61.015-40.066-79.001-2.801-4.251-4.287-4.251-7.087 0-3.144 4.8-7.487 11.075-12.117 18.131 12.146 18.796 25.463 41.843 25.463 57.111 0 23.509-14.489 37.418-31.636 41.756 6.659 3.499 14.26 5.263 21.833 5.263 21.805 0 43.61-14.43 43.61-43.26z" fill="#95d6a4" fill-rule="evenodd"/></g><g><path d="m255.57 346.781v-19.219h18.906c10.36 0 18.789-8.501 18.789-18.951v-16.656c0-10.434-8.429-18.922-18.789-18.922h-18.906v-19.219c0-10.434-8.428-18.922-18.788-18.922h-16.46c-10.375 0-18.817 8.488-18.817 18.922v19.219h-18.906c-10.36 0-18.788 8.489-18.788 18.922v16.656c0 10.449 8.428 18.951 18.788 18.951h18.906v19.219c0 10.434 8.441 18.922 18.817 18.922h16.46c10.36.001 18.788-8.488 18.788-18.922zm-15-26.719v26.719c0 2.126-1.735 3.922-3.788 3.922h-16.46c-2.069 0-3.817-1.796-3.817-3.922v-26.719c0-4.142-3.358-7.5-7.5-7.5h-26.406c-2.053 0-3.788-1.809-3.788-3.951v-16.656c0-2.126 1.735-3.922 3.788-3.922h26.406c4.142 0 7.5-3.358 7.5-7.5v-26.719c0-2.126 1.748-3.922 3.817-3.922h16.46c2.053 0 3.788 1.796 3.788 3.922v26.719c0 4.142 3.358 7.5 7.5 7.5h26.406c2.054 0 3.789 1.796 3.789 3.922v16.656c0 2.142-1.735 3.951-3.789 3.951h-26.406c-4.142 0-7.5 3.358-7.5 7.5z"/><path d="m457.144 395.091-94.378.013v-23.985c5.917 2.105 12.206 3.173 18.477 3.173 25.398 0 51.109-17.436 51.109-50.76 0-21.801-21.866-54.239-36.335-75.704-1.845-2.737-3.527-5.233-4.965-7.418-.001-.002-.002-.003-.003-.005-1.294-1.963-4.323-6.562-9.806-6.562s-8.513 4.598-9.81 6.566c-1.427 2.17-7.381 11.007-8.667 12.928v-67.363l.004-1.97c.036-11.251.077-24.003-11.477-34.119l-46.826-41.048v-92.401c-.001-9.063-7.326-16.436-16.331-16.436h-110.681c-9.021 0-16.359 7.373-16.359 16.436v92.402l-46.822 41.044c-11.558 10.12-11.517 22.872-11.48 34.123l.004 211.159-36.081.014c-17.806 0-27.413 13.407-27.413 26.021 0 7.187 2.947 13.806 8.299 18.641 3.991 3.604 11.29 7.901 23.4 7.901h31.794v34.632c0 9.796 7.916 17.765 17.645 17.765h198.648c.9.491 1.803.981 2.733 1.445 13.726 6.845 29.964 10.423 46.774 10.423 4.466 0 8.974-.253 13.484-.764 41.804-4.737 90.622-33.899 90.622-100.496 0-8.633-6.979-15.655-15.559-15.655zm-78.196-138.94c.797-1.183 1.564-2.321 2.294-3.41.743 1.107 1.524 2.266 2.336 3.471 11.803 17.51 33.773 50.103 33.773 67.32 0 24.569-18.718 35.76-36.109 35.76-17.378 0-36.081-11.19-36.081-35.76 0-17.238 21.979-49.857 33.787-67.381zm-202.853-151.414v-23.257h113.371v23.257zm1.36-89.737h110.681c.721 0 1.331.657 1.331 1.436v50.044h-113.372v-50.044c0-.765.635-1.436 1.36-1.436zm-59.658 467.373v-34.632h150.82c11.06 0 14.821.817 17.039 10.545 2.295 9.998 7.156 19.092 14.164 26.852h-179.378c-1.434 0-2.645-1.266-2.645-2.765zm262.596 13.964c-33.357 3.783-72.779-9.447-80.115-41.396-5.06-22.2-21.711-22.2-31.661-22.2h-197.615c-5.81 0-10.425-1.395-13.346-4.033-2.163-1.954-3.354-4.621-3.354-7.509 0-5.308 3.884-11.021 12.416-11.021l148.69-.058c4.142-.001 7.499-3.361 7.497-7.503-.001-4.141-3.359-7.497-7.5-7.497-.001 0-.002 0-.003 0l-97.606.038v-195.553h97.609c4.142 0 7.5-3.358 7.5-7.5s-3.358-7.5-7.5-7.5h-97.612l-.001-.648c-.035-10.966.243-17.431 6.365-22.792l47.26-41.428h122.728l47.264 41.432c6.119 5.357 6.396 11.822 6.361 22.788v.648h-97.242c-4.142 0-7.5 3.358-7.5 7.5s3.358 7.5 7.5 7.5h97.241l-.004 77.318c-9.559 16.236-17.604 33.379-17.604 46.61 0 17.56 7.139 30.702 17.604 39.212v32.362l-97.467.014c-4.142 0-7.5 3.359-7.499 7.501s3.359 7.5 7.501 7.499l104.676-.015c.097.004.191.015.289.015s.193-.011.291-.015l101.589-.014c.258 0 .559.286.559.655-.001 56.646-39.937 81.355-77.311 85.59z"/></g></g></svg>