<?xml version="1.0"?>
<svg xmlns="http://www.w3.org/2000/svg" xmlns:xlink="http://www.w3.org/1999/xlink" id="Layer_1" data-name="Layer 1" viewBox="0 0 512 512" width="512" height="512"><defs><linearGradient id="linear-gradient" x1="256.007" y1="489" x2="256.007" y2="26.901" gradientUnits="userSpaceOnUse"><stop offset="0.322" stop-color="#a163f5"/><stop offset="0.466" stop-color="#b074ee"/><stop offset="0.752" stop-color="#d8a1dd"/><stop offset="0.898" stop-color="#efbad3"/></linearGradient></defs><title>tablet</title><path d="M326.991,165.723a126.517,126.517,0,0,0-53.9,27.717,126.795,126.795,0,0,0-88.63-171.11,126.685,126.685,0,0,0-106.6,223.31A148.961,148.961,0,1,0,316.533,422.15q3.336-5.415,6.168-11.033A126.676,126.676,0,0,0,479.518,259.685C463.373,191.735,394.946,149.586,326.991,165.723Zm3.236,13.621a112.86,112.86,0,0,1,131.555,70.068,16.308,16.308,0,0,0-9.443-.547l-128.386,30.5a147.876,147.876,0,0,0-55.045-61.5A112.459,112.459,0,0,1,330.227,179.344ZM311.338,402.526a18.208,18.208,0,0,0-7.918-10.305L95.514,264.14A18.216,18.216,0,0,0,82.762,261.7a134.155,134.155,0,0,1,9.146-10.681A6.845,6.845,0,0,0,94.866,248a134.255,134.255,0,0,1,35.6-25.184,7,7,0,0,0,3.345-1.574,135.91,135.91,0,0,1,16.935-6.356,6.98,6.98,0,0,0,3.359-.964,135.957,135.957,0,0,1,35.828-4.83,134.046,134.046,0,0,1,58.1,13.215,6.99,6.99,0,0,0,2.028,1.015q2.159,1.081,4.291,2.246c.046.034.088.072.134.106a6.971,6.971,0,0,0,1.569.823q2.235,1.263,4.442,2.616a134.977,134.977,0,0,1,50.842,173.411ZM81.911,277.915l.268-.432a4.321,4.321,0,0,1,2.7-1.952,4.391,4.391,0,0,1,1.015-.12,4.321,4.321,0,0,1,2.276.649L296.076,404.141a4.355,4.355,0,0,1,1.422,6l-.259.421a4.354,4.354,0,0,1-5.992,1.423L83.341,283.9A4.359,4.359,0,0,1,81.911,277.915Zm97.3-234.736a2.441,2.441,0,0,1,1.822,2.94L144.716,202.091c-1.826.577-3.641,1.2-5.445,1.844L176.286,45.007A2.445,2.445,0,0,1,179.213,43.179ZM331.078,297.073q-.769-2.329-1.606-4.626l126.112-29.963a2.436,2.436,0,1,1,1.118,4.743ZM265.467,171.262a111.955,111.955,0,0,1-15.636,36.47,148.549,148.549,0,0,0-89.819-9.6L194.669,49.3a16.326,16.326,0,0,0-.626-9.552A112.855,112.855,0,0,1,265.467,171.262ZM51.115,187.6A112.708,112.708,0,0,1,167.384,33.615a16.337,16.337,0,0,0-4.733,8.216l-39.337,168.9a148.207,148.207,0,0,0-35.662,24.776A112.49,112.49,0,0,1,51.115,187.6ZM220.9,475.325A134.97,134.97,0,0,1,68.084,285.5,18.259,18.259,0,0,0,76,295.82L283.9,423.9a18.2,18.2,0,0,0,12.749,2.461A133.928,133.928,0,0,1,220.9,475.325Zm231.3-127.258a112.727,112.727,0,0,1-123.7,50.114,147.836,147.836,0,0,0,6.347-87.615l125.075-29.715a16.3,16.3,0,0,0,8.283-4.83A111.828,111.828,0,0,1,452.208,348.067Z" style="fill:url(#linear-gradient)"/></svg>
